Coordinates
version=1
nRows=18
nColumns=32
inDegrees=yes

Units are S.I. units (second, meters, Newtons, ...)
If the header above contains a line with 'inDegrees', this indicates whether rotational values are in degrees (yes) or radians (no).

endheader
time	pelvis_tilt	pelvis_list	pelvis_rotation	pelvis_tx	pelvis_ty	pelvis_tz	hip_flexion_r	hip_adduction_r	hip_rotation_r	knee_angle_r	knee_adduction_r	med_cond_adduction_r	lat_cond_adduction_r	patella_r_constrained_knee_angle	ankle_angle_r	subtalar_angle_r	mtp_angle_r	hip_flexion_l	hip_adduction_l	hip_rotation_l	knee_angle_l	knee_adduction_l	med_cond_adduction_l	lat_cond_adduction_l	patella_l_constrained_knee_angle	ankle_angle_l	subtalar_angle_l	mtp_angle_l	lumbar_extension	lumbar_bending	lumbar_rotation
      0.71500000	      7.02797125	    -14.93801638	     -5.40620123	      0.23413116	      0.91556207	      0.25623417	    -29.58605994	      4.22907979	    -12.63586405	     -8.68482717	      9.72913917	     -0.00000000	     -0.00000000	     -0.15157883	     -3.83652601	     18.84273784	      0.00000000	     10.47141651	    -24.20701636	    -22.63441590	      9.13340654	      9.78867293	      0.00000000	      0.00000000	      0.15940802	    -14.34946330	     16.01985275	     -0.00000000	    -26.38647683	     13.09923500	     -0.75947546
      0.72000000	      7.28325973	    -14.37490558	     -5.85746160	      0.24204493	      0.91602483	      0.25576848	    -29.60778641	      3.12043515	    -12.75525197	     -9.95180861	      9.71115170	      0.00000000	      0.00000000	     -0.17369183	     -4.30492004	     18.88637647	      0.00000000	      9.62910413	    -23.57834031	    -23.09845716	      9.03612964	      9.77984489	      0.00000000	      0.00000000	      0.15771021	    -14.96693888	     15.24656956	     -0.00000000	    -26.58799090	     12.18698832	     -0.62063023
      0.72500000	      7.57023206	    -13.79565789	     -6.26376635	      0.24994129	      0.91655069	      0.25523564	    -29.62347362	      2.00076973	    -12.93389063	    -11.25594467	      9.68713975	      0.00000000	     -0.00000000	     -0.19645329	     -4.90764386	     18.90886390	     -0.00000000	      8.78685264	    -22.91829805	    -23.41305348	      8.92561879	      9.77043354	      0.00000000	      0.00000000	      0.15578144	    -15.66873252	     14.30114783	      0.00000000	    -26.81468081	     11.34158048	     -0.27248005
      0.73000000	      7.88264745	    -13.17429966	     -6.70169684	      0.25786666	      0.91719524	      0.25481240	    -29.63512234	      0.82867171	    -13.01961485	    -12.56359314	      9.65517783	     -0.00000000	     -0.00000000	     -0.21927607	     -5.55239618	     18.89646156	      0.00000000	      7.91083734	    -22.21165953	    -23.78250234	      8.80481341	      9.76218367	     -0.00000000	     -0.00000000	      0.15367298	    -16.48033694	     13.35466713	      0.00000000	    -27.04850421	     10.41853281	      0.11455937
      0.73500000	      8.24227269	    -12.43887272	     -7.00691583	      0.26580163	      0.91790034	      0.25415186	    -29.64338793	     -0.42773213	    -13.41767578	    -13.96132956	      9.62106234	     -0.00000000	      0.00000000	     -0.24367117	     -6.37813729	     18.90151056	     -0.00000000	      7.09933357	    -21.33718793	    -24.05040449	      8.61340973	      9.74727491	      0.00000000	      0.00000000	      0.15033236	    -17.29183028	     12.42613701	      0.00000000	    -27.27679227	      9.42903151	      0.39194270
      0.74000000	      8.62233227	    -11.68115065	     -7.29930877	      0.27371697	      0.91868983	      0.25351259	    -29.64681907	     -1.70039824	    -13.77702248	    -15.35453650	      9.57516047	      0.00000000	      0.00000000	     -0.26798722	     -7.28886222	     18.86235094	     -0.00000000	      6.31349577	    -20.44109070	    -24.31072689	      8.36330572	      9.73283520	      0.00000000	      0.00000000	      0.14596722	    -18.11997391	     11.56618215	     -0.00000000	    -27.51558119	      8.24774249	      0.11927666
      0.74500000	      9.03731824	    -10.90297989	     -7.62850605	      0.28163461	      0.91958644	      0.25301773	    -29.64510474	     -3.00795708	    -14.09748533	    -16.78797985	      9.51053312	      0.00000000	      0.00000000	     -0.29300552	     -8.27938592	     18.79281706	      0.00000000	      5.47698009	    -19.53081977	    -24.58554493	      8.11609205	      9.72142098	      0.00000000	     -0.00000000	      0.14165253	    -18.95920989	     10.71175211	     -0.00000000	    -27.78009173	      7.26097056	      0.74736888
      0.75000000	      9.45119779	    -10.10737562	     -7.75838145	      0.28952923	      0.92045082	      0.25218308	    -29.63944600	     -4.24486529	    -14.62514892	    -18.21912514	      9.42546073	      0.00000000	      0.00000000	     -0.31798372	     -9.44913989	     18.68431146	     -0.00000000	      4.79739606	    -18.57777842	    -24.57835187	      7.78655883	      9.70557543	      0.00000000	      0.00000000	      0.13590109	    -19.73857193	      9.85675611	     -0.00000000	    -28.01989952	      6.23780670	      0.84128276
      0.75500000	      9.92867608	     -9.26122119	     -8.05252473	      0.29739919	      0.92150562	      0.25177280	    -29.62633442	     -5.59461016	    -15.01676048	    -19.71624513	      9.29717516	     -0.00000000	     -0.00000000	     -0.34411339	    -10.63708581	     18.50928628	      0.00000000	      3.98554677	    -17.59708443	    -24.88119559	      7.42611026	      9.69679990	     -0.00000000	     -0.00000000	      0.12961007	    -20.50644873	      9.24245756	     -0.00000000	    -28.31345343	      5.16760185	      1.45989399
      0.76000000	     10.40489994	     -8.34444591	     -8.20896904	      0.30534737	      0.92252777	      0.25111546	    -29.60634328	     -6.96151286	    -15.62837735	    -21.24049459	      9.14221048	      0.00000000	      0.00000000	     -0.37071657	    -11.94401377	     18.32168609	     -0.00000000	      3.30732326	    -16.51900728	    -25.10271798	      6.93604847	      9.67807570	     -0.00000000	     -0.00000000	      0.12105688	    -21.06112186	      8.80457408	      0.00000000	    -28.57039944	      3.96243373	      1.52497147
      0.76500000	     10.86706881	     -7.53013579	     -8.18193020	      0.31317400	      0.92350824	      0.25020338	    -29.57705043	     -8.11121358	    -16.33248198	    -22.74463263	      8.91311992	     -0.00000000	      0.00000000	     -0.39696873	    -13.40693368	     18.03789580	     -0.00000000	      2.71431655	    -15.54659456	    -24.88117784	      6.48479947	      9.65848921	     -0.00000000	     -0.00000000	      0.11318110	    -21.60882185	      8.14613414	      0.00000000	    -28.83455768	      2.94150790	      1.43219782
      0.77000000	     11.38515384	     -6.61169570	     -8.25592511	      0.32104915	      0.92459588	      0.24954029	    -29.52875223	     -9.41203741	    -17.10567830	    -24.37148247	      8.60329734	      0.00000000	      0.00000000	     -0.42536261	    -14.86212966	     17.72593384	     -0.00000000	      2.06911086	    -14.47297834	    -25.01107226	      5.90222078	      9.64164058	     -0.00000000	     -0.00000000	      0.10301319	    -21.98464628	      7.83747971	     -0.00000000	    -29.12827183	      1.78043190	      1.47749972
      0.77500000	     11.90323896	     -5.78599711	     -8.26744096	      0.32886332	      0.92571457	      0.24884812	    -29.46281565	    -10.54525237	    -17.90265894	    -25.97873270	      8.17305233	     -0.00000000	     -0.00000000	     -0.45341442	    -16.41782582	     17.28264320	      0.00000000	      1.41982741	    -13.49732097	    -24.95974186	      5.37062974	      9.62513402	      0.00000000	      0.00000000	      0.09373517	    -22.31120089	      7.50522886	     -0.00000000	    -29.44603544	      0.79570323	      1.69392755
      0.78000000	     12.42251967	     -5.04758842	     -8.30442495	      0.33664754	      0.92685237	      0.24826736	    -29.35330152	    -11.56361646	    -18.60631411	    -27.60641800	      7.65421783	      0.00000000	      0.00000000	     -0.48182289	    -18.00772931	     16.71096555	      0.00000000	      0.76587612	    -12.62838225	    -24.99103598	      4.76345336	      9.61709153	     -0.00000000	     -0.00000000	      0.08313794	    -22.38537393	      7.34025034	     -0.00000000	    -29.76580062	     -0.16944493	      1.73604063
      0.78500000	     12.97061948	     -4.15245564	     -8.42752758	      0.34444547	      0.92794400	      0.24792603	    -29.15042807	    -12.81525612	    -19.61570632	    -29.47713953	      6.98312789	     -0.00000000	     -0.00000000	     -0.51447314	    -19.51842536	     16.26157220	      0.00000000	      0.11741927	    -11.60192105	    -25.36448184	      4.02489885	      9.60126011	      0.00000000	      0.00000000	      0.07024774	    -22.34327347	      7.58275832	     -0.00000000	    -30.07222635	     -1.31935728	      1.94982580
      0.79000000	     13.40187301	     -3.38131697	     -8.30456926	      0.35221236	      0.92882326	      0.24701716	    -28.85708867	    -13.81664110	    -20.79952768	    -31.32183009	      6.22347265	      0.00000000	      0.00000000	     -0.54666906	    -21.15738581	     15.66924119	      0.00000000	     -0.50994042	    -10.61075450	    -24.78133322	      3.78824763	      9.58401918	     -0.00000000	     -0.00000000	      0.06611739	    -22.38239122	      6.74444545	     -0.00000000	    -30.30879607	     -2.11851708	      2.04799516
      0.79500000	     13.67902755	     -2.39868824	     -8.29415099	      0.35993410	      0.92933988	      0.24635787	    -28.19921176	    -15.13982058	    -22.31718009	    -33.57951070	      5.23573834	      0.00000000	      0.00000000	     -0.58607302	    -22.50670332	     15.48871600	      0.00000000	     -0.77366587	     -9.50328563	    -24.81384915	      3.01745496	      9.55340851	      0.00000000	      0.00000000	      0.05266452	    -22.13610072	      6.79831093	      0.00000000	    -30.31357739	     -3.29022189	      1.77640831
      0.80000000	     13.82613447	     -1.51303873	     -8.37074401	      0.36759875	      0.92970772	      0.24583233	    -27.29026365	    -16.37631096	    -23.70687618	    -35.89620359	      4.09604346	     -0.00000000	     -0.00000000	     -0.62650694	    -23.84746376	     15.03341083	      0.00000000	     -1.08759473	     -8.45157789	    -24.53163188	      2.65386186	      9.53208055	     -0.00000000	     -0.00000000	      0.04631863	    -21.88114297	      6.32143140	     -0.00000000	    -30.21468883	     -4.25492695	      2.01253676
